<svg width="96" height="96" xmlns="http://www.w3.org/2000/svg" xmlns:xlink="http://www.w3.org/1999/xlink" xml:space="preserve" overflow="hidden"><defs><clipPath id="clip0"><rect x="286" y="37" width="96" height="96"/></clipPath></defs><g clip-path="url(#clip0)" transform="translate(-286 -37)"><path d="M359.5 59 355.6 62.9C368 75.3 368 95.5 355.6 107.9L359.5 111.8C374.1 97.3 374.1 73.6 359.5 59Z"/><path d="M351.6 66.8 347.7 70.7C355.8 78.8 355.8 91.9 347.7 100.1L351.6 104C361.9 93.7 361.9 77.1 351.6 66.8Z"/><path d="M343.9 74.8 340 78.7C343.8 82.5 343.8 88.6 340 92.4L343.9 96.3C349.9 90.3 349.9 80.7 343.9 74.8Z"/><path d="M289.5 71.6 289.5 98.4 308.9 98.4 334 119 334 51 308.9 71.6Z"/></g></svg>